<?xml version="1.0" encoding="utf-8"?>
<!-- Generator: Adobe Illustrator 23.1.1, SVG Export Plug-In . SVG Version: 6.00 Build 0)  -->
<svg version="1.2" baseProfile="tiny" id="Capa_1" xmlns="http://www.w3.org/2000/svg" xmlns:xlink="http://www.w3.org/1999/xlink"
	 x="0px" y="0px" viewBox="0 0 720 720" xml:space="preserve">
<path fill="#408275" d="M329.69,353.27l0.6-0.6l8-8c0.23-0.23,0.49-0.4,0.77-0.51c0.28-0.11,0.58-0.17,0.88-0.17
	c0.3,0,0.6,0.06,0.88,0.17c0.28,0.11,0.53,0.28,0.77,0.51l13.64,13.64l4.78-4.78l-13.64-13.64c-0.88-0.88-1.91-1.55-3.01-2
	c-1.1-0.44-2.26-0.67-3.42-0.67c-1.16,0-2.32,0.22-3.42,0.67c-1.1,0.44-2.13,1.12-3.01,2l-8.6,8.6c-0.88,0.88-1.55,1.91-2,3.01
	c-0.44,1.1-0.66,2.26-0.66,3.42s0.22,2.32,0.67,3.42c0.44,1.09,1.11,2.13,1.99,3.01l19.77,19.77c0.88,0.88,1.91,1.55,3.01,2
	c1.09,0.45,2.26,0.67,3.42,0.67c1.16,0,2.32-0.22,3.42-0.67c1.1-0.44,2.13-1.11,3.01-2l2.47-2.47l4.78-4.78l1.35-1.35
	c0.88-0.88,1.55-1.91,2-3.01c0.44-1.1,0.67-2.26,0.67-3.42c0-1.16-0.22-2.32-0.67-3.42c-0.45-1.09-1.12-2.13-2-3.01l-1.35-1.35
	l-4.78,4.78l1.35,1.35c0.24,0.23,0.4,0.49,0.51,0.77c0.11,0.28,0.17,0.58,0.17,0.88c0,0.3-0.06,0.6-0.17,0.88
	c-0.11,0.28-0.28,0.53-0.51,0.77l-1.35,1.35l-4.78,4.78l-2.46,2.47c-0.23,0.23-0.49,0.4-0.77,0.51c-0.28,0.11-0.58,0.17-0.88,0.17
	s-0.6-0.06-0.88-0.17c-0.28-0.11-0.53-0.28-0.77-0.51l-19.77-19.77c-0.23-0.23-0.4-0.49-0.51-0.77c-0.11-0.28-0.17-0.58-0.17-0.88
	c0-0.3,0.06-0.6,0.17-0.88C329.3,353.76,329.46,353.5,329.69,353.27"/>
<path fill="#4ADD2A" d="M390.31,356.56l-19.77,19.77c-0.24,0.23-0.49,0.4-0.77,0.51c-0.28,0.11-0.58,0.17-0.88,0.17
	c-0.3,0-0.6-0.06-0.88-0.17c-0.28-0.11-0.53-0.28-0.77-0.51l-2.46-2.47l-4.78,4.78l2.46,2.47c0.88,0.88,1.91,1.55,3.01,2
	c1.1,0.45,2.26,0.67,3.42,0.67c1.16,0,2.32-0.22,3.42-0.67c1.1-0.44,2.13-1.11,3.01-2l19.77-19.77c0.88-0.88,1.55-1.91,1.99-3.01
	c0.45-1.1,0.67-2.26,0.67-3.42s-0.22-2.32-0.66-3.42s-1.11-2.13-2-3.01h0l-8.6-8.6c-0.88-0.88-1.91-1.55-3.01-2
	c-1.1-0.45-2.26-0.67-3.42-0.67s-2.32,0.22-3.42,0.67c-1.09,0.44-2.13,1.11-3,2L360,353.53l-4.78,4.78l-1.35,1.35
	c-0.88,0.88-1.55,1.91-2,3.01c-0.44,1.1-0.66,2.26-0.66,3.42c0,1.16,0.22,2.32,0.66,3.42c0.45,1.1,1.12,2.13,2,3.01l1.35,1.35
	l4.78-4.78l-1.35-1.35c-0.23-0.23-0.4-0.49-0.51-0.77c-0.11-0.28-0.17-0.58-0.17-0.88c0-0.3,0.06-0.6,0.17-0.88
	c0.11-0.28,0.28-0.53,0.51-0.77l1.35-1.35l4.78-4.78l13.64-13.64c0.23-0.23,0.49-0.4,0.77-0.51c0.28-0.11,0.58-0.17,0.88-0.17
	c0.3,0,0.6,0.06,0.88,0.17c0.28,0.11,0.53,0.28,0.77,0.51l8,8l0.6,0.6c0.23,0.23,0.4,0.49,0.51,0.77c0.11,0.27,0.17,0.58,0.17,0.88
	c0,0.3-0.06,0.6-0.17,0.88C390.7,356.07,390.54,356.32,390.31,356.56"/>
</svg>
