<?xml version="1.0" encoding="utf-8"?>
<!-- Generator: Adobe Illustrator 23.1.1, SVG Export Plug-In . SVG Version: 6.00 Build 0)  -->
<svg version="1.2" baseProfile="tiny" id="Capa_1" xmlns="http://www.w3.org/2000/svg" xmlns:xlink="http://www.w3.org/1999/xlink"
	 x="0px" y="0px" viewBox="0 0 720 720" xml:space="preserve">
<path fill-rule="evenodd" fill="#4ADD2A" d="M345.33,372.67h41.41c1.01,0,2.01-0.84,2.01-1.85l4.36-26.39
	c0.34-1.34-0.84-2.52-2.01-2.52h-10.79c0.75,1.42,0.58,3.35-0.51,4.54h9.28l-3.69,22.01h-37.72l-4.19-22.01h6.41
	c-1.09-1.19-1.25-3.12-0.5-4.54h-7.42l-1.68-8.4c-0.16-1.18-1.01-2.02-2.01-2.02h-10.23c-0.5,0.34-1.51,1.35-1.51,2.52
	c0,1.34,1.01,2.19,2.01,2.19h8.38l6.37,32.94c-2.35,1.01-3.85,3.36-3.85,6.05c0,3.7,3.02,6.56,6.53,6.56h1.01
	c-0.17,0.67-0.34,1.51-0.34,2.18c0,3.53,2.85,6.38,6.54,6.38c3.52,0,6.37-2.85,6.37-6.38c0-0.84-0.16-1.51-0.33-2.18h12.4
	c-0.34,0.67-0.5,1.51-0.5,2.18c0,3.53,3.02,6.38,6.54,6.38c3.52,0,6.7-2.85,6.7-6.38c0-0.84-0.17-1.51-0.51-2.18h3.35
	c1.34,0,2.18-1.01,2.18-2.02c0-1.17-1.01-2.35-2.18-2.35h-41.91c-1.17,0-2.01-1.01-2.01-2.35
	C343.32,373.85,344.33,372.67,345.33,372.67 M378.02,381.75h0.83c1.01,0.17,1.68,1.01,1.68,2.18c0,1.18-1.01,2.19-2.35,2.19
	c-1.17,0-2.01-1.01-2.01-2.19C376.35,382.76,377.02,381.91,378.02,381.75 M353.04,381.75h1.18c1.01,0.17,1.68,1.01,1.68,2.18
	c0,1.18-1.18,2.19-2.35,2.19c-1.34,0-2.18-1.01-2.18-2.19C351.36,382.76,352.03,381.91,353.04,381.75"/>
<path fill="#408275" d="M365.5,362.11c-0.72,0-1.43-0.3-1.95-0.81L351,348.75c-2.01-2.01-3.11-4.66-3.11-7.48
	c-0.01-2.82,1.09-5.48,3.09-7.49c2-2,4.66-3.1,7.48-3.1c2.63,0,5.11,0.95,7.06,2.7c1.94-1.73,4.42-2.68,7.03-2.68
	c2.83,0,5.49,1.1,7.48,3.1h0c2,2,3.1,4.66,3.09,7.49c0,2.82-1.1,5.48-3.1,7.48l-12.58,12.53
	C366.93,361.82,366.22,362.11,365.5,362.11 M366.18,358.67L366.18,358.67L366.18,358.67 M358.46,334.4c-1.83,0-3.55,0.71-4.85,2.01
	c-1.3,1.3-2.01,3.02-2.01,4.86c0,1.83,0.72,3.55,2.02,4.86L365.5,358l11.9-11.85c1.3-1.3,2.01-3.02,2.01-4.86
	c0.01-1.84-0.71-3.56-2-4.86c-1.29-1.3-3.02-2.01-4.85-2.01c-1.83,0-3.56,0.72-4.86,2.02l-2.18,2.18l-2.19-2.19
	C362.03,335.12,360.3,334.4,358.46,334.4"/>
</svg>
